<?xml version="1.0" encoding="UTF-8"?>
<svg width="58px" height="50px" viewBox="0 0 58 50" version="1.1" xmlns="http://www.w3.org/2000/svg" xmlns:xlink="http://www.w3.org/1999/xlink">
    <title>graduation-hat</title>
    <g id="Page-1" stroke="none" stroke-width="1" fill="none" fill-rule="evenodd">
        <g id="Homepage" transform="translate(-431.000000, -2629.000000)" fill="#282753" fill-rule="nonzero">
            <g id="Group-13" transform="translate(431.000000, 2578.000000)">
                <g id="Group-12" transform="translate(0.000000, 48.000000)">
                    <g id="graduation-hat" transform="translate(0.000000, 3.000000)">
                        <path d="M57.8898911,35.7422448 C57.8898911,33.5071227 56.4728614,31.601551 54.5000762,30.8937509 L54.5000762,13.1549758 L58,11.7399485 L28.9623908,0 L0,11.7399485 L13.7090168,17.29693 L13.7090168,25.4555955 C13.7090168,27.9706521 15.4521818,30.2374001 18.6173609,31.8382865 C21.4091664,33.2503346 25.0833161,34.0279178 28.9631837,34.0279178 C32.8430514,34.0279178 36.5173144,33.2503346 39.3090066,31.8382865 C42.4741856,30.2374001 44.2173507,27.9707667 44.2173507,25.4555955 L44.2173507,17.3122846 L51.1100347,14.5255436 L51.1100347,30.8938655 C49.1372495,31.601551 47.7202198,33.5072373 47.7202198,35.7423594 C47.7202198,37.7870389 48.9059301,39.5565965 50.618396,40.3849415 L47.8072195,48.915669 L51.0231483,50 L52.8050554,44.5927829 L54.5869626,50 L57.8028914,48.915669 L54.9917149,40.3849415 C56.7039543,39.5563673 57.8898911,37.7869243 57.8898911,35.7422448 Z M40.8277624,25.4554809 C40.8277624,27.8833373 35.7538017,30.5988056 28.963297,30.5988056 C22.1727923,30.5988056 17.0989449,27.8833373 17.0989449,25.4554809 L17.0989449,18.6709354 L28.9625041,23.479897 L40.8277624,18.6826232 L40.8277624,25.4554809 L40.8277624,25.4554809 Z M28.96409,19.7866631 L9.11287456,11.7399485 L28.96409,3.6932339 L48.8665083,11.7399485 L28.96409,19.7866631 Z M52.8050554,37.4566863 C51.8704888,37.4566863 51.110148,36.6875825 51.110148,35.7422448 C51.110148,34.7969071 51.8704888,34.0278032 52.8050554,34.0278032 C53.7396221,34.0278032 54.4999629,34.7969071 54.4999629,35.7422448 C54.4999629,36.6875825 53.7396221,37.4566863 52.8050554,37.4566863 Z" id="Shape"></path>
                    </g>
                </g>
            </g>
        </g>
    </g>
</svg>