<?xml version="1.0" encoding="UTF-8"?>
<svg width="34px" height="34px" viewBox="0 0 34 34" version="1.1" xmlns="http://www.w3.org/2000/svg" xmlns:xlink="http://www.w3.org/1999/xlink">
    <title>clock-11</title>
    <g id="Page-1" stroke="none" stroke-width="1" fill="none" fill-rule="evenodd">
        <g id="Homepage" transform="translate(-1067.000000, -1720.000000)" fill="#282753" fill-rule="nonzero" stroke="#282753" stroke-width="0.2">
            <g id="Group-8" transform="translate(1045.000000, 1522.000000)">
                <g id="clock-11" transform="translate(23.000000, 199.000000)">
                    <path d="M30.722719,9.76813414 C29.0356078,5.83264014 26.1686797,2.97046745 22.2025098,1.27798268 C20.220183,0.432080358 18.1433725,0 15.9736993,0 C13.8043922,0 11.742902,0.427999686 9.76277124,1.27798268 C5.82943791,2.96596824 2.94980392,5.82630987 1.25971242,9.76813414 C0.412810458,11.74297 0,13.8119229 0,15.9824217 C0,18.1533391 0.412810458,20.2394517 1.25971242,22.2147061 C2.94980392,26.1565304 5.82980392,29.0340318 9.76277124,30.7224358 C11.743268,31.5724188 13.8043399,32 15.9736993,32 C18.1430588,32 20.220183,31.5679196 22.2021961,30.7224358 C26.168366,29.0298988 29.0352941,26.1498339 30.7227712,22.2147061 C31.5722353,20.2331215 32,18.1533391 32,15.9824217 C32,13.8119229 31.5726013,11.7496665 30.722719,9.76813414 Z M28.1685752,23.0550106 C26.9125752,25.2101808 25.1918954,26.9199299 23.0247843,28.1840488 C20.8707974,29.4407387 18.5106928,30.0744984 15.9740654,30.0744984 C14.0671373,30.0744984 12.2475294,29.7070287 10.5152418,28.9541448 C8.78300654,28.201627 7.28737255,27.2123257 6.03623529,25.9608674 C4.78509804,24.7090429 3.78928105,23.1979911 3.04465359,21.4618222 C2.30222222,19.7319836 1.94243137,17.8908159 1.94243137,15.982474 C1.94243137,13.4440869 2.56575163,11.0946664 3.81469281,8.94546025 C5.06807843,6.78840671 6.78912418,5.07682649 8.94091503,3.81636977 C11.0923399,2.55596537 13.4371242,1.9255539 15.9736993,1.9255539 C18.5106928,1.9255539 20.8703791,2.55967982 23.0244183,3.81636977 C25.1915294,5.08054095 26.9084967,6.79206885 28.1682092,8.94540794 C29.4279216,11.0983808 30.0576209,13.4440869 30.0576209,15.9824217 C30.0576209,18.5208611 29.4320523,20.8862905 28.1685752,23.0550106 Z" id="Shape"></path>
                    <path d="M16.9308058,16.282275 L16.9308058,7.00313572 C16.9308058,6.44787242 16.4693589,6 15.9396932,6 C15.4443411,6 15,6.44787242 15,7.00313572 L15,16.4255342 C15,16.4435219 15.0342626,16.5153657 15.0342626,16.5689005 C15,16.8913944 15.085682,17.1600857 15.2905425,17.3752422 L20.3994445,22.7311882 C20.7413043,23.0896039 21.3733492,23.0896039 21.7149537,22.7311882 C22.1078244,22.3192377 22.081987,21.7215212 21.7149537,21.3339826 L16.9308058,16.282275 Z" id="Shape"></path>
                </g>
            </g>
        </g>
    </g>
</svg>