<?xml version="1.0" encoding="UTF-8"?>
<svg width="51px" height="52px" viewBox="0 0 51 52" version="1.1" xmlns="http://www.w3.org/2000/svg" xmlns:xlink="http://www.w3.org/1999/xlink">
    <title>settings-7</title>
    <g id="Page-1" stroke="none" stroke-width="1" fill="none" fill-rule="evenodd">
        <g id="Homepage" transform="translate(-1099.000000, -2628.000000)" fill="#282753" fill-rule="nonzero" stroke="#282753" stroke-width="0.5">
            <g id="Group-13" transform="translate(431.000000, 2578.000000)">
                <g id="Group-10" transform="translate(669.000000, 48.000000)">
                    <g id="settings-7" transform="translate(0.000000, 3.000000)">
                        <path d="M25.379562,24.3752603 L25.379562,1.40566431 C25.379562,0.624739692 24.7664234,0 24,0 C23.2335766,0 22.620438,0.624739692 22.620438,1.40566431 L22.620438,24.3752603 C19.4218978,25.031237 17,27.9154519 17,31.3723449 C17,34.8292378 19.4218978,37.7134527 22.620438,38.3694294 L22.620438,48.5943357 C22.620438,49.3752603 23.2335766,50 24,50 C24.7664234,50 25.379562,49.3752603 25.379562,48.5943357 L25.379562,38.3694294 C28.5781022,37.7134527 31,34.8292378 31,31.3723449 C31,27.9258642 28.5883212,25.031237 25.379562,24.3752603 Z M24,35.6934611 C21.659854,35.6934611 19.7591241,33.756768 19.7591241,31.3723449 C19.7591241,28.9879217 21.659854,27.0512287 24,27.0512287 C26.340146,27.0512287 28.2408759,28.9879217 28.2408759,31.3723449 C28.2408759,33.756768 26.340146,35.6934611 24,35.6934611 Z" id="Shape"></path>
                        <path d="M8.37956204,12.5885048 L8.37956204,1.40566431 C8.37956204,0.624739692 7.76642336,0 7,0 C6.23357664,0 5.62043796,0.624739692 5.62043796,1.40566431 L5.62043796,12.5885048 C2.42189781,13.2444815 0,16.1286964 0,19.5855893 C0,23.0424823 2.42189781,25.9266972 5.62043796,26.5826739 L5.62043796,48.5943357 C5.62043796,49.3752603 6.23357664,50 7,50 C7.76642336,50 8.37956204,49.3752603 8.37956204,48.5943357 L8.37956204,26.5722616 C11.5781022,25.9162849 14,23.03207 14,19.575177 C14,16.118284 11.5781022,13.2444815 8.37956204,12.5885048 Z M7,23.9067055 C4.65985401,23.9067055 2.75912409,21.9700125 2.75912409,19.5855893 C2.75912409,17.2011662 4.65985401,15.2644731 7,15.2644731 C9.34014599,15.2644731 11.2408759,17.2011662 11.2408759,19.5855893 C11.2408759,21.9700125 9.32992701,23.9067055 7,23.9067055 Z" id="Shape"></path>
                        <path d="M43.379562,12.5858838 L43.379562,1.40537164 C43.379562,0.624609619 42.7664234,0 42,0 C41.2335766,0 40.620438,0.624609619 40.620438,1.40537164 L40.620438,12.5858838 C37.4218978,13.2417239 35,16.1253383 35,19.5815116 C35,23.0376848 37.4218978,25.9212992 40.620438,26.5771393 L40.620438,48.5946284 C40.620438,49.3753904 41.2335766,50 42,50 C42.7664234,50 43.379562,49.3753904 43.379562,48.5946284 L43.379562,26.5667291 C46.5781022,25.910889 49,23.0272746 49,19.5711014 C49,16.1149282 46.5883212,13.2417239 43.379562,12.5858838 Z M42,23.9017281 C39.659854,23.9017281 37.7591241,21.9654383 37.7591241,19.5815116 C37.7591241,17.1975848 39.659854,15.261295 42,15.261295 C44.340146,15.261295 46.2408759,17.1975848 46.2408759,19.5815116 C46.2408759,21.9654383 44.340146,23.9017281 42,23.9017281 Z" id="Shape"></path>
                    </g>
                </g>
            </g>
        </g>
    </g>
</svg>